<svg width="20" height="13" viewBox="0 0 20 13" fill="none" xmlns="http://www.w3.org/2000/svg">
<path d="M19.7693 5.65383C17.8115 2.33154 14.1601 0.111084 10 0.111084C5.83821 0.111084 2.18766 2.3331 0.23078 5.65383C0.0796862 5.91022 0 6.20239 0 6.49999C0 6.79759 0.0796862 7.08976 0.23078 7.34615C2.18859 10.6684 5.83995 12.8889 10 12.8889C14.1618 12.8889 17.8124 10.6668 19.7693 7.34612C19.9203 7.08973 20 6.79757 20 6.49997C20 6.20238 19.9203 5.91021 19.7693 5.65383ZM10 11.2222C6.43904 11.2222 3.33019 9.32285 1.66668 6.49997C3.19991 3.89813 5.96102 2.08088 9.17231 1.81223C9.51245 2.1624 9.72224 2.6399 9.72224 3.16664C9.72224 4.24053 8.85168 5.11108 7.77779 5.11108C6.70391 5.11108 5.83335 4.24053 5.83335 3.16664L5.83338 3.16518C5.47898 3.82785 5.27779 4.58483 5.27779 5.38886C5.27779 7.99688 7.392 10.1111 10 10.1111C12.608 10.1111 14.7222 7.99688 14.7222 5.38886C14.7222 4.3114 14.3611 3.31841 13.7537 2.52376C15.6842 3.32768 17.292 4.73282 18.3334 6.49997C16.6699 9.32285 13.561 11.2222 10 11.2222Z" fill="black" stroke="black" stroke-width="0.0347222"/>
</svg>
